<svg xmlns="http://www.w3.org/2000/svg" viewBox="0 0 20 20"><rect width="20" height="20" rx="4.2" fill="#070b16"/><rect x="4" y="4" width="1.02" height="1.02" fill="#2be08f"/><rect x="5" y="3" width="1.02" height="1.02" fill="#2be08f"/><rect x="4" y="3" width="1.02" height="1.02" fill="#2be08f"/><rect x="6" y="3" width="1.02" height="1.02" fill="#2be08f"/><rect x="4" y="5" width="1.02" height="1.02" fill="#2be08f"/><rect x="4" y="5" width="1.02" height="1.02" fill="#2be08f"/><rect x="4" y="4" width="1.02" height="1.02" fill="#2be08f"/><rect x="4" y="6" width="1.02" height="1.02" fill="#2be08f"/><rect x="4" y="6" width="1.02" height="1.02" fill="#2be08f"/><rect x="4" y="5" width="1.02" height="1.02" fill="#2be08f"/><rect x="4" y="7" width="1.02" height="1.02" fill="#2be08f"/><rect x="4" y="7" width="1.02" height="1.02" fill="#2be08f"/><rect x="4" y="6" width="1.02" height="1.02" fill="#2be08f"/><rect x="4" y="8" width="1.02" height="1.02" fill="#2be08f"/><rect x="4" y="8" width="1.02" height="1.02" fill="#2be08f"/><rect x="4" y="7" width="1.02" height="1.02" fill="#2be08f"/><rect x="4" y="9" width="1.02" height="1.02" fill="#2be08f"/><rect x="4" y="9" width="1.02" height="1.02" fill="#2be08f"/><rect x="4" y="8" width="1.02" height="1.02" fill="#2be08f"/><rect x="4" y="10" width="1.02" height="1.02" fill="#2be08f"/><rect x="4" y="10" width="1.02" height="1.02" fill="#2be08f"/><rect x="4" y="9" width="1.02" height="1.02" fill="#2be08f"/><rect x="4" y="11" width="1.02" height="1.02" fill="#2be08f"/><rect x="4" y="11" width="1.02" height="1.02" fill="#2be08f"/><rect x="4" y="10" width="1.02" height="1.02" fill="#2be08f"/><rect x="4" y="12" width="1.02" height="1.02" fill="#2be08f"/><rect x="4" y="12" width="1.02" height="1.02" fill="#2be08f"/><rect x="4" y="11" width="1.02" height="1.02" fill="#2be08f"/><rect x="4" y="13" width="1.02" height="1.02" fill="#2be08f"/><rect x="4" y="13" width="1.02" height="1.02" fill="#2be08f"/><rect x="4" y="12" width="1.02" height="1.02" fill="#2be08f"/><rect x="4" y="14" width="1.02" height="1.02" fill="#2be08f"/><rect x="4" y="14" width="1.02" height="1.02" fill="#2be08f"/><rect x="4" y="13" width="1.02" height="1.02" fill="#2be08f"/><rect x="4" y="15" width="1.02" height="1.02" fill="#2be08f"/><rect x="4" y="15" width="1.02" height="1.02" fill="#2be08f"/><rect x="5" y="16" width="1.02" height="1.02" fill="#2be08f"/><rect x="6" y="16" width="1.02" height="1.02" fill="#2be08f"/><rect x="4" y="14" width="1.02" height="1.02" fill="#2be08f"/><rect x="4" y="16" width="1.02" height="1.02" fill="#2be08f"/><rect x="6" y="3" width="1.02" height="1.02" fill="#2be08f"/><rect x="5" y="3" width="1.02" height="1.02" fill="#2be08f"/><rect x="7" y="3" width="1.02" height="1.02" fill="#2be08f"/><rect x="6" y="16" width="1.02" height="1.02" fill="#2be08f"/><rect x="7" y="16" width="1.02" height="1.02" fill="#2be08f"/><rect x="5" y="16" width="1.02" height="1.02" fill="#2be08f"/><rect x="7" y="3" width="1.02" height="1.02" fill="#2be08f"/><rect x="6" y="3" width="1.02" height="1.02" fill="#2be08f"/><rect x="8" y="3" width="1.02" height="1.02" fill="#2be08f"/><rect x="8" y="7" width="1.02" height="1.02" fill="#2be08f"/><rect x="8" y="7" width="1.02" height="1.02" fill="#2be08f"/><rect x="8" y="8" width="1.02" height="1.02" fill="#2be08f"/><rect x="8" y="8" width="1.02" height="1.02" fill="#2be08f"/><rect x="8" y="7" width="1.02" height="1.02" fill="#2be08f"/><rect x="8" y="8" width="1.02" height="1.02" fill="#2be08f"/><rect x="8" y="12" width="1.02" height="1.02" fill="#2be08f"/><rect x="8" y="12" width="1.02" height="1.02" fill="#2be08f"/><rect x="8" y="13" width="1.02" height="1.02" fill="#2be08f"/><rect x="8" y="13" width="1.02" height="1.02" fill="#2be08f"/><rect x="8" y="14" width="1.02" height="1.02" fill="#2be08f"/><rect x="8" y="12" width="1.02" height="1.02" fill="#2be08f"/><rect x="8" y="14" width="1.02" height="1.02" fill="#2be08f"/><rect x="8" y="15" width="1.02" height="1.02" fill="#2be08f"/><rect x="8" y="13" width="1.02" height="1.02" fill="#2be08f"/><rect x="8" y="15" width="1.02" height="1.02" fill="#2be08f"/><rect x="7" y="16" width="1.02" height="1.02" fill="#2be08f"/><rect x="8" y="16" width="1.02" height="1.02" fill="#2be08f"/><rect x="8" y="14" width="1.02" height="1.02" fill="#2be08f"/><rect x="6" y="16" width="1.02" height="1.02" fill="#2be08f"/><rect x="8" y="3" width="1.02" height="1.02" fill="#2be08f"/><rect x="7" y="3" width="1.02" height="1.02" fill="#2be08f"/><rect x="9" y="3" width="1.02" height="1.02" fill="#2be08f"/><rect x="8" y="7" width="1.02" height="1.02" fill="#2be08f"/><rect x="9" y="7" width="1.02" height="1.02" fill="#2be08f"/><rect x="9" y="3" width="1.02" height="1.02" fill="#2be08f"/><rect x="8" y="3" width="1.02" height="1.02" fill="#2be08f"/><rect x="10" y="3" width="1.02" height="1.02" fill="#2be08f"/><rect x="9" y="7" width="1.02" height="1.02" fill="#2be08f"/><rect x="10" y="7" width="1.02" height="1.02" fill="#2be08f"/><rect x="8" y="7" width="1.02" height="1.02" fill="#2be08f"/><rect x="10" y="3" width="1.02" height="1.02" fill="#2be08f"/><rect x="9" y="3" width="1.02" height="1.02" fill="#2be08f"/><rect x="11" y="3" width="1.02" height="1.02" fill="#2be08f"/><rect x="10" y="7" width="1.02" height="1.02" fill="#2be08f"/><rect x="11" y="7" width="1.02" height="1.02" fill="#2be08f"/><rect x="9" y="7" width="1.02" height="1.02" fill="#2be08f"/><rect x="11" y="3" width="1.02" height="1.02" fill="#2be08f"/><rect x="10" y="3" width="1.02" height="1.02" fill="#2be08f"/><rect x="12" y="3" width="1.02" height="1.02" fill="#2be08f"/><rect x="11" y="7" width="1.02" height="1.02" fill="#2be08f"/><rect x="12" y="7" width="1.02" height="1.02" fill="#2be08f"/><rect x="10" y="7" width="1.02" height="1.02" fill="#2be08f"/><rect x="12" y="3" width="1.02" height="1.02" fill="#2be08f"/><rect x="11" y="3" width="1.02" height="1.02" fill="#2be08f"/><rect x="13" y="3" width="1.02" height="1.02" fill="#2be08f"/><rect x="12" y="7" width="1.02" height="1.02" fill="#2be08f"/><rect x="13" y="7" width="1.02" height="1.02" fill="#2be08f"/><rect x="11" y="7" width="1.02" height="1.02" fill="#2be08f"/><rect x="14" y="4" width="1.02" height="1.02" fill="#2be08f"/><rect x="13" y="3" width="1.02" height="1.02" fill="#2be08f"/><rect x="14" y="5" width="1.02" height="1.02" fill="#2be08f"/><rect x="12" y="3" width="1.02" height="1.02" fill="#2be08f"/><rect x="14" y="3" width="1.02" height="1.02" fill="#2be08f"/><rect x="14" y="5" width="1.02" height="1.02" fill="#2be08f"/><rect x="14" y="6" width="1.02" height="1.02" fill="#2be08f"/><rect x="14" y="4" width="1.02" height="1.02" fill="#2be08f"/><rect x="14" y="6" width="1.02" height="1.02" fill="#2be08f"/><rect x="13" y="7" width="1.02" height="1.02" fill="#2be08f"/><rect x="14" y="7" width="1.02" height="1.02" fill="#2be08f"/><rect x="14" y="5" width="1.02" height="1.02" fill="#2be08f"/><rect x="12" y="7" width="1.02" height="1.02" fill="#2be08f"/><rect x="8" y="8" width="1.02" height="1.02" fill="#2be08f"/><rect x="9" y="8" width="1.02" height="1.02" fill="#2be08f"/><rect x="8" y="12" width="1.02" height="1.02" fill="#2be08f"/><rect x="9" y="12" width="1.02" height="1.02" fill="#2be08f"/><rect x="9" y="8" width="1.02" height="1.02" fill="#2be08f"/><rect x="8" y="8" width="1.02" height="1.02" fill="#2be08f"/><rect x="10" y="8" width="1.02" height="1.02" fill="#2be08f"/><rect x="9" y="12" width="1.02" height="1.02" fill="#2be08f"/><rect x="10" y="12" width="1.02" height="1.02" fill="#2be08f"/><rect x="8" y="12" width="1.02" height="1.02" fill="#2be08f"/><rect x="10" y="8" width="1.02" height="1.02" fill="#2be08f"/><rect x="9" y="8" width="1.02" height="1.02" fill="#2be08f"/><rect x="11" y="8" width="1.02" height="1.02" fill="#2be08f"/><rect x="10" y="12" width="1.02" height="1.02" fill="#2be08f"/><rect x="11" y="12" width="1.02" height="1.02" fill="#2be08f"/><rect x="9" y="12" width="1.02" height="1.02" fill="#2be08f"/><rect x="12" y="9" width="1.02" height="1.02" fill="#2be08f"/><rect x="11" y="8" width="1.02" height="1.02" fill="#2be08f"/><rect x="12" y="10" width="1.02" height="1.02" fill="#2be08f"/><rect x="10" y="8" width="1.02" height="1.02" fill="#2be08f"/><rect x="12" y="8" width="1.02" height="1.02" fill="#2be08f"/><rect x="12" y="10" width="1.02" height="1.02" fill="#2be08f"/><rect x="12" y="11" width="1.02" height="1.02" fill="#2be08f"/><rect x="12" y="9" width="1.02" height="1.02" fill="#2be08f"/><rect x="12" y="11" width="1.02" height="1.02" fill="#2be08f"/><rect x="11" y="12" width="1.02" height="1.02" fill="#2be08f"/><rect x="12" y="12" width="1.02" height="1.02" fill="#2be08f"/><rect x="12" y="10" width="1.02" height="1.02" fill="#2be08f"/><rect x="10" y="12" width="1.02" height="1.02" fill="#2be08f"/><rect x="5" y="4" width="1.02" height="1.02" fill="#fff"/><rect x="5" y="5" width="1.02" height="1.02" fill="#fff"/><rect x="5" y="6" width="1.02" height="1.02" fill="#fff"/><rect x="5" y="7" width="1.02" height="1.02" fill="#fff"/><rect x="5" y="8" width="1.02" height="1.02" fill="#fff"/><rect x="5" y="9" width="1.02" height="1.02" fill="#fff"/><rect x="5" y="10" width="1.02" height="1.02" fill="#fff"/><rect x="5" y="11" width="1.02" height="1.02" fill="#fff"/><rect x="5" y="12" width="1.02" height="1.02" fill="#fff"/><rect x="5" y="13" width="1.02" height="1.02" fill="#fff"/><rect x="5" y="14" width="1.02" height="1.02" fill="#fff"/><rect x="5" y="15" width="1.02" height="1.02" fill="#fff"/><rect x="6" y="4" width="1.02" height="1.02" fill="#fff"/><rect x="6" y="5" width="1.02" height="1.02" fill="#fff"/><rect x="6" y="6" width="1.02" height="1.02" fill="#fff"/><rect x="6" y="7" width="1.02" height="1.02" fill="#fff"/><rect x="6" y="8" width="1.02" height="1.02" fill="#fff"/><rect x="6" y="9" width="1.02" height="1.02" fill="#fff"/><rect x="6" y="10" width="1.02" height="1.02" fill="#fff"/><rect x="6" y="11" width="1.02" height="1.02" fill="#fff"/><rect x="6" y="12" width="1.02" height="1.02" fill="#fff"/><rect x="6" y="13" width="1.02" height="1.02" fill="#fff"/><rect x="6" y="14" width="1.02" height="1.02" fill="#fff"/><rect x="6" y="15" width="1.02" height="1.02" fill="#fff"/><rect x="7" y="4" width="1.02" height="1.02" fill="#fff"/><rect x="7" y="5" width="1.02" height="1.02" fill="#fff"/><rect x="7" y="6" width="1.02" height="1.02" fill="#fff"/><rect x="7" y="7" width="1.02" height="1.02" fill="#fff"/><rect x="7" y="8" width="1.02" height="1.02" fill="#fff"/><rect x="7" y="9" width="1.02" height="1.02" fill="#fff"/><rect x="7" y="10" width="1.02" height="1.02" fill="#fff"/><rect x="7" y="11" width="1.02" height="1.02" fill="#fff"/><rect x="7" y="12" width="1.02" height="1.02" fill="#fff"/><rect x="7" y="13" width="1.02" height="1.02" fill="#fff"/><rect x="7" y="14" width="1.02" height="1.02" fill="#fff"/><rect x="7" y="15" width="1.02" height="1.02" fill="#fff"/><rect x="8" y="4" width="1.02" height="1.02" fill="#fff"/><rect x="8" y="5" width="1.02" height="1.02" fill="#fff"/><rect x="8" y="6" width="1.02" height="1.02" fill="#fff"/><rect x="9" y="4" width="1.02" height="1.02" fill="#fff"/><rect x="9" y="5" width="1.02" height="1.02" fill="#fff"/><rect x="9" y="6" width="1.02" height="1.02" fill="#fff"/><rect x="10" y="4" width="1.02" height="1.02" fill="#fff"/><rect x="10" y="5" width="1.02" height="1.02" fill="#fff"/><rect x="10" y="6" width="1.02" height="1.02" fill="#fff"/><rect x="11" y="4" width="1.02" height="1.02" fill="#fff"/><rect x="11" y="5" width="1.02" height="1.02" fill="#fff"/><rect x="11" y="6" width="1.02" height="1.02" fill="#fff"/><rect x="12" y="4" width="1.02" height="1.02" fill="#fff"/><rect x="12" y="5" width="1.02" height="1.02" fill="#fff"/><rect x="12" y="6" width="1.02" height="1.02" fill="#fff"/><rect x="13" y="4" width="1.02" height="1.02" fill="#fff"/><rect x="13" y="5" width="1.02" height="1.02" fill="#fff"/><rect x="13" y="6" width="1.02" height="1.02" fill="#fff"/><rect x="8" y="9" width="1.02" height="1.02" fill="#fff"/><rect x="8" y="10" width="1.02" height="1.02" fill="#fff"/><rect x="8" y="11" width="1.02" height="1.02" fill="#fff"/><rect x="9" y="9" width="1.02" height="1.02" fill="#fff"/><rect x="9" y="10" width="1.02" height="1.02" fill="#fff"/><rect x="9" y="11" width="1.02" height="1.02" fill="#fff"/><rect x="10" y="9" width="1.02" height="1.02" fill="#fff"/><rect x="10" y="10" width="1.02" height="1.02" fill="#fff"/><rect x="10" y="11" width="1.02" height="1.02" fill="#fff"/><rect x="11" y="9" width="1.02" height="1.02" fill="#fff"/><rect x="11" y="10" width="1.02" height="1.02" fill="#fff"/><rect x="11" y="11" width="1.02" height="1.02" fill="#fff"/><rect x="10.5" y="13.5" width="0.52" height="0.52" fill="#0b1220"/><rect x="10.5" y="14" width="0.52" height="0.52" fill="#0b1220"/><rect x="10.5" y="14.5" width="0.52" height="0.52" fill="#0b1220"/><rect x="10.5" y="15" width="0.52" height="0.52" fill="#0b1220"/><rect x="10.5" y="15.5" width="0.52" height="0.52" fill="#0b1220"/><rect x="10.5" y="16" width="0.52" height="0.52" fill="#0b1220"/><rect x="11" y="12.5" width="0.52" height="0.52" fill="#0b1220"/><rect x="11" y="13" width="0.52" height="0.52" fill="#0b1220"/><rect x="11" y="13.5" width="0.52" height="0.52" fill="#0b1220"/><rect x="11" y="14" width="0.52" height="0.52" fill="#0b1220"/><rect x="11" y="14.5" width="0.52" height="0.52" fill="#0b1220"/><rect x="11" y="15" width="0.52" height="0.52" fill="#0b1220"/><rect x="11" y="15.5" width="0.52" height="0.52" fill="#0b1220"/><rect x="11" y="16" width="0.52" height="0.52" fill="#0b1220"/><rect x="11" y="16.5" width="0.52" height="0.52" fill="#0b1220"/><rect x="11.5" y="12" width="0.52" height="0.52" fill="#0b1220"/><rect x="11.5" y="12.5" width="0.52" height="0.52" fill="#0b1220"/><rect x="11.5" y="13" width="0.52" height="0.52" fill="#0b1220"/><rect x="11.5" y="13.5" width="0.52" height="0.52" fill="#0b1220"/><rect x="11.5" y="14" width="0.52" height="0.52" fill="#0b1220"/><rect x="11.5" y="14.5" width="0.52" height="0.52" fill="#0b1220"/><rect x="11.5" y="15" width="0.52" height="0.52" fill="#0b1220"/><rect x="11.5" y="15.5" width="0.52" height="0.52" fill="#0b1220"/><rect x="11.5" y="16" width="0.52" height="0.52" fill="#0b1220"/><rect x="11.5" y="16.5" width="0.52" height="0.52" fill="#0b1220"/><rect x="11.5" y="17" width="0.52" height="0.52" fill="#0b1220"/><rect x="12" y="11.5" width="0.52" height="0.52" fill="#0b1220"/><rect x="12" y="12" width="0.52" height="0.52" fill="#0b1220"/><rect x="12" y="12.5" width="0.52" height="0.52" fill="#0b1220"/><rect x="12" y="13" width="0.52" height="0.52" fill="#0b1220"/><rect x="12" y="13.5" width="0.52" height="0.52" fill="#0b1220"/><rect x="12" y="14" width="0.52" height="0.52" fill="#0b1220"/><rect x="12" y="14.5" width="0.52" height="0.52" fill="#0b1220"/><rect x="12" y="15" width="0.52" height="0.52" fill="#0b1220"/><rect x="12" y="15.5" width="0.52" height="0.52" fill="#0b1220"/><rect x="12" y="16" width="0.52" height="0.52" fill="#0b1220"/><rect x="12" y="16.5" width="0.52" height="0.52" fill="#0b1220"/><rect x="12" y="17" width="0.52" height="0.52" fill="#0b1220"/><rect x="12" y="17.5" width="0.52" height="0.52" fill="#0b1220"/><rect x="12.5" y="11.5" width="0.52" height="0.52" fill="#0b1220"/><rect x="12.5" y="12" width="0.52" height="0.52" fill="#0b1220"/><rect x="12.5" y="12.5" width="0.52" height="0.52" fill="#0b1220"/><rect x="12.5" y="13" width="0.52" height="0.52" fill="#0b1220"/><rect x="12.5" y="13.5" width="0.52" height="0.52" fill="#0b1220"/><rect x="12.5" y="14" width="0.52" height="0.52" fill="#0b1220"/><rect x="12.5" y="14.5" width="0.52" height="0.52" fill="#0b1220"/><rect x="12.5" y="15" width="0.52" height="0.52" fill="#0b1220"/><rect x="12.5" y="15.5" width="0.52" height="0.52" fill="#0b1220"/><rect x="12.5" y="16" width="0.52" height="0.52" fill="#0b1220"/><rect x="12.5" y="16.5" width="0.52" height="0.52" fill="#0b1220"/><rect x="12.5" y="17" width="0.52" height="0.52" fill="#0b1220"/><rect x="12.5" y="17.5" width="0.52" height="0.52" fill="#0b1220"/><rect x="12.5" y="18" width="0.52" height="0.52" fill="#0b1220"/><rect x="13" y="11" width="0.52" height="0.52" fill="#0b1220"/><rect x="13" y="11.5" width="0.52" height="0.52" fill="#0b1220"/><rect x="13" y="12" width="0.52" height="0.52" fill="#0b1220"/><rect x="13" y="12.5" width="0.52" height="0.52" fill="#0b1220"/><rect x="13" y="13" width="0.52" height="0.52" fill="#0b1220"/><rect x="13" y="13.5" width="0.52" height="0.52" fill="#0b1220"/><rect x="13" y="14" width="0.52" height="0.52" fill="#0b1220"/><rect x="13" y="14.5" width="0.52" height="0.52" fill="#0b1220"/><rect x="13" y="15" width="0.52" height="0.52" fill="#0b1220"/><rect x="13" y="15.5" width="0.52" height="0.52" fill="#0b1220"/><rect x="13" y="16" width="0.52" height="0.52" fill="#0b1220"/><rect x="13" y="16.5" width="0.52" height="0.52" fill="#0b1220"/><rect x="13" y="17" width="0.52" height="0.52" fill="#0b1220"/><rect x="13" y="17.5" width="0.52" height="0.52" fill="#0b1220"/><rect x="13" y="18" width="0.52" height="0.52" fill="#0b1220"/><rect x="13.5" y="11" width="0.52" height="0.52" fill="#0b1220"/><rect x="13.5" y="11.5" width="0.52" height="0.52" fill="#0b1220"/><rect x="13.5" y="12" width="0.52" height="0.52" fill="#0b1220"/><rect x="13.5" y="12.5" width="0.52" height="0.52" fill="#0b1220"/><rect x="13.5" y="13" width="0.52" height="0.52" fill="#0b1220"/><rect x="13.5" y="13.5" width="0.52" height="0.52" fill="#0b1220"/><rect x="13.5" y="14" width="0.52" height="0.52" fill="#0b1220"/><rect x="13.5" y="14.5" width="0.52" height="0.52" fill="#0b1220"/><rect x="13.5" y="15" width="0.52" height="0.52" fill="#0b1220"/><rect x="13.5" y="15.5" width="0.52" height="0.52" fill="#0b1220"/><rect x="13.5" y="16" width="0.52" height="0.52" fill="#0b1220"/><rect x="13.5" y="16.5" width="0.52" height="0.52" fill="#0b1220"/><rect x="13.5" y="17" width="0.52" height="0.52" fill="#0b1220"/><rect x="13.5" y="17.5" width="0.52" height="0.52" fill="#0b1220"/><rect x="13.5" y="18" width="0.52" height="0.52" fill="#0b1220"/><rect x="14" y="11" width="0.52" height="0.52" fill="#0b1220"/><rect x="14" y="11.5" width="0.52" height="0.52" fill="#0b1220"/><rect x="14" y="12" width="0.52" height="0.52" fill="#0b1220"/><rect x="14" y="12.5" width="0.52" height="0.52" fill="#0b1220"/><rect x="14" y="13" width="0.52" height="0.52" fill="#0b1220"/><rect x="14" y="13.5" width="0.52" height="0.52" fill="#0b1220"/><rect x="14" y="14" width="0.52" height="0.52" fill="#0b1220"/><rect x="14" y="14.5" width="0.52" height="0.52" fill="#0b1220"/><rect x="14" y="15" width="0.52" height="0.52" fill="#0b1220"/><rect x="14" y="15.5" width="0.52" height="0.52" fill="#0b1220"/><rect x="14" y="16" width="0.52" height="0.52" fill="#0b1220"/><rect x="14" y="16.5" width="0.52" height="0.52" fill="#0b1220"/><rect x="14" y="17" width="0.52" height="0.52" fill="#0b1220"/><rect x="14" y="17.5" width="0.52" height="0.52" fill="#0b1220"/><rect x="14" y="18" width="0.52" height="0.52" fill="#0b1220"/><rect x="14.5" y="11" width="0.52" height="0.52" fill="#0b1220"/><rect x="14.5" y="11.5" width="0.52" height="0.52" fill="#0b1220"/><rect x="14.5" y="12" width="0.52" height="0.52" fill="#0b1220"/><rect x="14.5" y="12.5" width="0.52" height="0.52" fill="#0b1220"/><rect x="14.5" y="13" width="0.52" height="0.52" fill="#0b1220"/><rect x="14.5" y="13.5" width="0.52" height="0.52" fill="#0b1220"/><rect x="14.5" y="14" width="0.52" height="0.52" fill="#0b1220"/><rect x="14.5" y="14.5" width="0.52" height="0.52" fill="#0b1220"/><rect x="14.5" y="15" width="0.52" height="0.52" fill="#0b1220"/><rect x="14.5" y="15.5" width="0.52" height="0.52" fill="#0b1220"/><rect x="14.5" y="16" width="0.52" height="0.52" fill="#0b1220"/><rect x="14.5" y="16.5" width="0.52" height="0.52" fill="#0b1220"/><rect x="14.5" y="17" width="0.52" height="0.52" fill="#0b1220"/><rect x="14.5" y="17.5" width="0.52" height="0.52" fill="#0b1220"/><rect x="14.5" y="18" width="0.52" height="0.52" fill="#0b1220"/><rect x="15" y="11" width="0.52" height="0.52" fill="#0b1220"/><rect x="15" y="11.5" width="0.52" height="0.52" fill="#0b1220"/><rect x="15" y="12" width="0.52" height="0.52" fill="#0b1220"/><rect x="15" y="12.5" width="0.52" height="0.52" fill="#0b1220"/><rect x="15" y="13" width="0.52" height="0.52" fill="#0b1220"/><rect x="15" y="13.5" width="0.52" height="0.52" fill="#0b1220"/><rect x="15" y="14" width="0.52" height="0.52" fill="#0b1220"/><rect x="15" y="14.5" width="0.52" height="0.52" fill="#0b1220"/><rect x="15" y="15" width="0.52" height="0.52" fill="#0b1220"/><rect x="15" y="15.5" width="0.52" height="0.52" fill="#0b1220"/><rect x="15" y="16" width="0.52" height="0.52" fill="#0b1220"/><rect x="15" y="16.5" width="0.52" height="0.52" fill="#0b1220"/><rect x="15" y="17" width="0.52" height="0.52" fill="#0b1220"/><rect x="15" y="17.5" width="0.52" height="0.52" fill="#0b1220"/><rect x="15" y="18" width="0.52" height="0.52" fill="#0b1220"/><rect x="15.5" y="11" width="0.52" height="0.52" fill="#0b1220"/><rect x="15.5" y="11.5" width="0.52" height="0.52" fill="#0b1220"/><rect x="15.5" y="12" width="0.52" height="0.52" fill="#0b1220"/><rect x="15.5" y="12.5" width="0.52" height="0.52" fill="#0b1220"/><rect x="15.5" y="13" width="0.52" height="0.52" fill="#0b1220"/><rect x="15.5" y="13.5" width="0.52" height="0.52" fill="#0b1220"/><rect x="15.5" y="14" width="0.52" height="0.52" fill="#0b1220"/><rect x="15.5" y="14.5" width="0.52" height="0.52" fill="#0b1220"/><rect x="15.5" y="15" width="0.52" height="0.52" fill="#0b1220"/><rect x="15.5" y="15.5" width="0.52" height="0.52" fill="#0b1220"/><rect x="15.5" y="16" width="0.52" height="0.52" fill="#0b1220"/><rect x="15.5" y="16.5" width="0.52" height="0.52" fill="#0b1220"/><rect x="15.5" y="17" width="0.52" height="0.52" fill="#0b1220"/><rect x="15.5" y="17.5" width="0.52" height="0.52" fill="#0b1220"/><rect x="15.5" y="18" width="0.52" height="0.52" fill="#0b1220"/><rect x="16" y="11.5" width="0.52" height="0.52" fill="#0b1220"/><rect x="16" y="12" width="0.52" height="0.52" fill="#0b1220"/><rect x="16" y="12.5" width="0.52" height="0.52" fill="#0b1220"/><rect x="16" y="13" width="0.52" height="0.52" fill="#0b1220"/><rect x="16" y="13.5" width="0.52" height="0.52" fill="#0b1220"/><rect x="16" y="14" width="0.52" height="0.52" fill="#0b1220"/><rect x="16" y="14.5" width="0.52" height="0.52" fill="#0b1220"/><rect x="16" y="15" width="0.52" height="0.52" fill="#0b1220"/><rect x="16" y="15.5" width="0.52" height="0.52" fill="#0b1220"/><rect x="16" y="16" width="0.52" height="0.52" fill="#0b1220"/><rect x="16" y="16.5" width="0.52" height="0.52" fill="#0b1220"/><rect x="16" y="17" width="0.52" height="0.52" fill="#0b1220"/><rect x="16" y="17.5" width="0.52" height="0.52" fill="#0b1220"/><rect x="16.5" y="12" width="0.52" height="0.52" fill="#0b1220"/><rect x="16.5" y="12.5" width="0.52" height="0.52" fill="#0b1220"/><rect x="16.5" y="13" width="0.52" height="0.52" fill="#0b1220"/><rect x="16.5" y="13.5" width="0.52" height="0.52" fill="#0b1220"/><rect x="16.5" y="14" width="0.52" height="0.52" fill="#0b1220"/><rect x="16.5" y="14.5" width="0.52" height="0.52" fill="#0b1220"/><rect x="16.5" y="15" width="0.52" height="0.52" fill="#0b1220"/><rect x="16.5" y="15.5" width="0.52" height="0.52" fill="#0b1220"/><rect x="16.5" y="16" width="0.52" height="0.52" fill="#0b1220"/><rect x="16.5" y="16.5" width="0.52" height="0.52" fill="#0b1220"/><rect x="16.5" y="17" width="0.52" height="0.52" fill="#0b1220"/><rect x="16.5" y="17.5" width="0.52" height="0.52" fill="#0b1220"/><rect x="17" y="12.5" width="0.52" height="0.52" fill="#0b1220"/><rect x="17" y="13" width="0.52" height="0.52" fill="#0b1220"/><rect x="17" y="13.5" width="0.52" height="0.52" fill="#0b1220"/><rect x="17" y="14" width="0.52" height="0.52" fill="#0b1220"/><rect x="17" y="14.5" width="0.52" height="0.52" fill="#0b1220"/><rect x="17" y="15" width="0.52" height="0.52" fill="#0b1220"/><rect x="17" y="15.5" width="0.52" height="0.52" fill="#0b1220"/><rect x="17" y="16" width="0.52" height="0.52" fill="#0b1220"/><rect x="17" y="16.5" width="0.52" height="0.52" fill="#0b1220"/><rect x="17" y="17" width="0.52" height="0.52" fill="#0b1220"/><rect x="17.5" y="13" width="0.52" height="0.52" fill="#0b1220"/><rect x="17.5" y="13.5" width="0.52" height="0.52" fill="#0b1220"/><rect x="17.5" y="14" width="0.52" height="0.52" fill="#0b1220"/><rect x="17.5" y="14.5" width="0.52" height="0.52" fill="#0b1220"/><rect x="17.5" y="15" width="0.52" height="0.52" fill="#0b1220"/><rect x="17.5" y="15.5" width="0.52" height="0.52" fill="#0b1220"/><rect x="17.5" y="16" width="0.52" height="0.52" fill="#0b1220"/><rect x="11" y="13.5" width="0.52" height="0.52" fill="#f4f7f9"/><rect x="11" y="14" width="0.52" height="0.52" fill="#f4f7f9"/><rect x="11" y="14.5" width="0.52" height="0.52" fill="#f4f7f9"/><rect x="11" y="15" width="0.52" height="0.52" fill="#f4f7f9"/><rect x="11" y="15.5" width="0.52" height="0.52" fill="#f4f7f9"/><rect x="11.5" y="12.5" width="0.52" height="0.52" fill="#f4f7f9"/><rect x="11.5" y="13" width="0.52" height="0.52" fill="#f4f7f9"/><rect x="11.5" y="13.5" width="0.52" height="0.52" fill="#f4f7f9"/><rect x="11.5" y="14" width="0.52" height="0.52" fill="#f4f7f9"/><rect x="11.5" y="14.5" width="0.52" height="0.52" fill="#f4f7f9"/><rect x="11.5" y="15" width="0.52" height="0.52" fill="#f4f7f9"/><rect x="11.5" y="15.5" width="0.52" height="0.52" fill="#f4f7f9"/><rect x="11.5" y="16" width="0.52" height="0.52" fill="#f4f7f9"/><rect x="11.5" y="16.5" width="0.52" height="0.52" fill="#f4f7f9"/><rect x="12" y="12" width="0.52" height="0.52" fill="#f4f7f9"/><rect x="12" y="12.5" width="0.52" height="0.52" fill="#f4f7f9"/><rect x="12" y="13" width="0.52" height="0.52" fill="#f4f7f9"/><rect x="12" y="13.5" width="0.52" height="0.52" fill="#f4f7f9"/><rect x="12" y="14" width="0.52" height="0.52" fill="#f4f7f9"/><rect x="12" y="14.5" width="0.52" height="0.52" fill="#f4f7f9"/><rect x="12" y="15" width="0.52" height="0.52" fill="#f4f7f9"/><rect x="12" y="15.5" width="0.52" height="0.52" fill="#f4f7f9"/><rect x="12" y="16" width="0.52" height="0.52" fill="#f4f7f9"/><rect x="12" y="16.5" width="0.52" height="0.52" fill="#f4f7f9"/><rect x="12" y="17" width="0.52" height="0.52" fill="#f4f7f9"/><rect x="12.5" y="12" width="0.52" height="0.52" fill="#f4f7f9"/><rect x="12.5" y="12.5" width="0.52" height="0.52" fill="#f4f7f9"/><rect x="12.5" y="13" width="0.52" height="0.52" fill="#f4f7f9"/><rect x="12.5" y="13.5" width="0.52" height="0.52" fill="#f4f7f9"/><rect x="12.5" y="14" width="0.52" height="0.52" fill="#f4f7f9"/><rect x="12.5" y="14.5" width="0.52" height="0.52" fill="#f4f7f9"/><rect x="12.5" y="15" width="0.52" height="0.52" fill="#f4f7f9"/><rect x="12.5" y="15.5" width="0.52" height="0.52" fill="#f4f7f9"/><rect x="12.5" y="16" width="0.52" height="0.52" fill="#f4f7f9"/><rect x="12.5" y="16.5" width="0.52" height="0.52" fill="#f4f7f9"/><rect x="12.5" y="17" width="0.52" height="0.52" fill="#f4f7f9"/><rect x="13" y="11.5" width="0.52" height="0.52" fill="#f4f7f9"/><rect x="13" y="12" width="0.52" height="0.52" fill="#f4f7f9"/><rect x="13" y="12.5" width="0.52" height="0.52" fill="#f4f7f9"/><rect x="13" y="13" width="0.52" height="0.52" fill="#f4f7f9"/><rect x="13" y="13.5" width="0.52" height="0.52" fill="#f4f7f9"/><rect x="13" y="14" width="0.52" height="0.52" fill="#f4f7f9"/><rect x="13" y="14.5" width="0.52" height="0.52" fill="#f4f7f9"/><rect x="13" y="15" width="0.52" height="0.52" fill="#f4f7f9"/><rect x="13" y="15.5" width="0.52" height="0.52" fill="#f4f7f9"/><rect x="13" y="16" width="0.52" height="0.52" fill="#f4f7f9"/><rect x="13" y="16.5" width="0.52" height="0.52" fill="#f4f7f9"/><rect x="13" y="17" width="0.52" height="0.52" fill="#f4f7f9"/><rect x="13" y="17.5" width="0.52" height="0.52" fill="#f4f7f9"/><rect x="13.5" y="11.5" width="0.52" height="0.52" fill="#f4f7f9"/><rect x="13.5" y="12" width="0.52" height="0.52" fill="#f4f7f9"/><rect x="13.5" y="12.5" width="0.52" height="0.52" fill="#f4f7f9"/><rect x="13.5" y="13" width="0.52" height="0.52" fill="#f4f7f9"/><rect x="13.5" y="13.5" width="0.52" height="0.52" fill="#f4f7f9"/><rect x="13.5" y="14" width="0.52" height="0.52" fill="#f4f7f9"/><rect x="13.5" y="14.5" width="0.52" height="0.52" fill="#f4f7f9"/><rect x="13.5" y="15" width="0.52" height="0.52" fill="#f4f7f9"/><rect x="13.5" y="15.5" width="0.52" height="0.52" fill="#f4f7f9"/><rect x="13.5" y="16" width="0.52" height="0.52" fill="#f4f7f9"/><rect x="13.5" y="16.5" width="0.52" height="0.52" fill="#f4f7f9"/><rect x="13.5" y="17" width="0.52" height="0.52" fill="#f4f7f9"/><rect x="13.5" y="17.5" width="0.52" height="0.52" fill="#f4f7f9"/><rect x="14" y="11.5" width="0.52" height="0.52" fill="#f4f7f9"/><rect x="14" y="12" width="0.52" height="0.52" fill="#f4f7f9"/><rect x="14" y="12.5" width="0.52" height="0.52" fill="#f4f7f9"/><rect x="14" y="13" width="0.52" height="0.52" fill="#f4f7f9"/><rect x="14" y="13.5" width="0.52" height="0.52" fill="#f4f7f9"/><rect x="14" y="14" width="0.52" height="0.52" fill="#f4f7f9"/><rect x="14" y="14.5" width="0.52" height="0.52" fill="#f4f7f9"/><rect x="14" y="15" width="0.52" height="0.52" fill="#f4f7f9"/><rect x="14" y="15.5" width="0.52" height="0.52" fill="#f4f7f9"/><rect x="14" y="16" width="0.52" height="0.52" fill="#f4f7f9"/><rect x="14" y="16.5" width="0.52" height="0.52" fill="#f4f7f9"/><rect x="14" y="17" width="0.52" height="0.52" fill="#f4f7f9"/><rect x="14" y="17.5" width="0.52" height="0.52" fill="#f4f7f9"/><rect x="14.5" y="11.5" width="0.52" height="0.52" fill="#f4f7f9"/><rect x="14.5" y="12" width="0.52" height="0.52" fill="#f4f7f9"/><rect x="14.5" y="12.5" width="0.52" height="0.52" fill="#f4f7f9"/><rect x="14.5" y="13" width="0.52" height="0.52" fill="#f4f7f9"/><rect x="14.5" y="13.5" width="0.52" height="0.52" fill="#f4f7f9"/><rect x="14.5" y="14" width="0.52" height="0.52" fill="#f4f7f9"/><rect x="14.5" y="14.5" width="0.52" height="0.52" fill="#f4f7f9"/><rect x="14.5" y="15" width="0.52" height="0.52" fill="#f4f7f9"/><rect x="14.5" y="15.5" width="0.52" height="0.52" fill="#f4f7f9"/><rect x="14.5" y="16" width="0.52" height="0.52" fill="#f4f7f9"/><rect x="14.5" y="16.5" width="0.52" height="0.52" fill="#f4f7f9"/><rect x="14.5" y="17" width="0.52" height="0.52" fill="#f4f7f9"/><rect x="14.5" y="17.5" width="0.52" height="0.52" fill="#f4f7f9"/><rect x="15" y="11.5" width="0.52" height="0.52" fill="#f4f7f9"/><rect x="15" y="12" width="0.52" height="0.52" fill="#f4f7f9"/><rect x="15" y="12.5" width="0.52" height="0.52" fill="#f4f7f9"/><rect x="15" y="13" width="0.52" height="0.52" fill="#f4f7f9"/><rect x="15" y="13.5" width="0.52" height="0.52" fill="#f4f7f9"/><rect x="15" y="14" width="0.52" height="0.52" fill="#f4f7f9"/><rect x="15" y="14.5" width="0.52" height="0.52" fill="#f4f7f9"/><rect x="15" y="15" width="0.52" height="0.52" fill="#f4f7f9"/><rect x="15" y="15.5" width="0.52" height="0.52" fill="#f4f7f9"/><rect x="15" y="16" width="0.52" height="0.52" fill="#f4f7f9"/><rect x="15" y="16.5" width="0.52" height="0.52" fill="#f4f7f9"/><rect x="15" y="17" width="0.52" height="0.52" fill="#f4f7f9"/><rect x="15" y="17.5" width="0.52" height="0.52" fill="#f4f7f9"/><rect x="15.5" y="12" width="0.52" height="0.52" fill="#f4f7f9"/><rect x="15.5" y="12.5" width="0.52" height="0.52" fill="#f4f7f9"/><rect x="15.5" y="13" width="0.52" height="0.52" fill="#f4f7f9"/><rect x="15.5" y="13.5" width="0.52" height="0.52" fill="#f4f7f9"/><rect x="15.5" y="14" width="0.52" height="0.52" fill="#f4f7f9"/><rect x="15.5" y="14.5" width="0.52" height="0.52" fill="#f4f7f9"/><rect x="15.5" y="15" width="0.52" height="0.52" fill="#f4f7f9"/><rect x="15.5" y="15.5" width="0.52" height="0.52" fill="#f4f7f9"/><rect x="15.5" y="16" width="0.52" height="0.52" fill="#f4f7f9"/><rect x="15.5" y="16.5" width="0.52" height="0.52" fill="#f4f7f9"/><rect x="15.5" y="17" width="0.52" height="0.52" fill="#f4f7f9"/><rect x="15.5" y="17.5" width="0.52" height="0.52" fill="#f4f7f9"/><rect x="16" y="12" width="0.52" height="0.52" fill="#f4f7f9"/><rect x="16" y="12.5" width="0.52" height="0.52" fill="#f4f7f9"/><rect x="16" y="13" width="0.52" height="0.52" fill="#f4f7f9"/><rect x="16" y="13.5" width="0.52" height="0.52" fill="#f4f7f9"/><rect x="16" y="14" width="0.52" height="0.52" fill="#f4f7f9"/><rect x="16" y="14.5" width="0.52" height="0.52" fill="#f4f7f9"/><rect x="16" y="15" width="0.52" height="0.52" fill="#f4f7f9"/><rect x="16" y="15.5" width="0.52" height="0.52" fill="#f4f7f9"/><rect x="16" y="16" width="0.52" height="0.52" fill="#f4f7f9"/><rect x="16" y="16.5" width="0.52" height="0.52" fill="#f4f7f9"/><rect x="16" y="17" width="0.52" height="0.52" fill="#f4f7f9"/><rect x="16.5" y="12.5" width="0.52" height="0.52" fill="#f4f7f9"/><rect x="16.5" y="13" width="0.52" height="0.52" fill="#f4f7f9"/><rect x="16.5" y="13.5" width="0.52" height="0.52" fill="#f4f7f9"/><rect x="16.5" y="14" width="0.52" height="0.52" fill="#f4f7f9"/><rect x="16.5" y="14.5" width="0.52" height="0.52" fill="#f4f7f9"/><rect x="16.5" y="15" width="0.52" height="0.52" fill="#f4f7f9"/><rect x="16.5" y="15.5" width="0.52" height="0.52" fill="#f4f7f9"/><rect x="16.5" y="16" width="0.52" height="0.52" fill="#f4f7f9"/><rect x="16.5" y="16.5" width="0.52" height="0.52" fill="#f4f7f9"/><rect x="17" y="13.5" width="0.52" height="0.52" fill="#f4f7f9"/><rect x="17" y="14" width="0.52" height="0.52" fill="#f4f7f9"/><rect x="17" y="14.5" width="0.52" height="0.52" fill="#f4f7f9"/><rect x="17" y="15" width="0.52" height="0.52" fill="#f4f7f9"/><rect x="17" y="15.5" width="0.52" height="0.52" fill="#f4f7f9"/><rect x="17" y="16" width="0.52" height="0.52" fill="#f4f7f9"/><rect x="13.5" y="16.5" width="0.52" height="0.52" fill="#ccd6dc"/><rect x="13.5" y="17" width="0.52" height="0.52" fill="#ccd6dc"/><rect x="14" y="15.5" width="0.52" height="0.52" fill="#ccd6dc"/><rect x="14" y="16" width="0.52" height="0.52" fill="#ccd6dc"/><rect x="14" y="16.5" width="0.52" height="0.52" fill="#ccd6dc"/><rect x="14" y="17" width="0.52" height="0.52" fill="#ccd6dc"/><rect x="14" y="17.5" width="0.52" height="0.52" fill="#ccd6dc"/><rect x="14.5" y="15" width="0.52" height="0.52" fill="#ccd6dc"/><rect x="14.5" y="15.5" width="0.52" height="0.52" fill="#ccd6dc"/><rect x="14.5" y="16" width="0.52" height="0.52" fill="#ccd6dc"/><rect x="14.5" y="16.5" width="0.52" height="0.52" fill="#ccd6dc"/><rect x="14.5" y="17" width="0.52" height="0.52" fill="#ccd6dc"/><rect x="14.5" y="17.5" width="0.52" height="0.52" fill="#ccd6dc"/><rect x="15" y="14.5" width="0.52" height="0.52" fill="#ccd6dc"/><rect x="15" y="15" width="0.52" height="0.52" fill="#ccd6dc"/><rect x="15" y="15.5" width="0.52" height="0.52" fill="#ccd6dc"/><rect x="15" y="16" width="0.52" height="0.52" fill="#ccd6dc"/><rect x="15" y="16.5" width="0.52" height="0.52" fill="#ccd6dc"/><rect x="15" y="17" width="0.52" height="0.52" fill="#ccd6dc"/><rect x="15" y="17.5" width="0.52" height="0.52" fill="#ccd6dc"/><rect x="15.5" y="14.5" width="0.52" height="0.52" fill="#ccd6dc"/><rect x="15.5" y="15" width="0.52" height="0.52" fill="#ccd6dc"/><rect x="15.5" y="15.5" width="0.52" height="0.52" fill="#ccd6dc"/><rect x="15.5" y="16" width="0.52" height="0.52" fill="#ccd6dc"/><rect x="15.5" y="16.5" width="0.52" height="0.52" fill="#ccd6dc"/><rect x="15.5" y="17" width="0.52" height="0.52" fill="#ccd6dc"/><rect x="16" y="14.5" width="0.52" height="0.52" fill="#ccd6dc"/><rect x="16" y="15" width="0.52" height="0.52" fill="#ccd6dc"/><rect x="16" y="15.5" width="0.52" height="0.52" fill="#ccd6dc"/><rect x="16" y="16" width="0.52" height="0.52" fill="#ccd6dc"/><rect x="16" y="16.5" width="0.52" height="0.52" fill="#ccd6dc"/><rect x="16" y="17" width="0.52" height="0.52" fill="#ccd6dc"/><rect x="16.5" y="14.5" width="0.52" height="0.52" fill="#ccd6dc"/><rect x="16.5" y="15" width="0.52" height="0.52" fill="#ccd6dc"/><rect x="16.5" y="15.5" width="0.52" height="0.52" fill="#ccd6dc"/><rect x="16.5" y="16" width="0.52" height="0.52" fill="#ccd6dc"/><rect x="16.5" y="16.5" width="0.52" height="0.52" fill="#ccd6dc"/><rect x="17" y="14.5" width="0.52" height="0.52" fill="#ccd6dc"/><rect x="17" y="15" width="0.52" height="0.52" fill="#ccd6dc"/><rect x="17" y="15.5" width="0.52" height="0.52" fill="#ccd6dc"/><rect x="13" y="14" width="0.52" height="0.52" fill="#10151f"/><rect x="13" y="14.5" width="0.52" height="0.52" fill="#10151f"/><rect x="13" y="15" width="0.52" height="0.52" fill="#10151f"/><rect x="13.5" y="13.5" width="0.52" height="0.52" fill="#10151f"/><rect x="13.5" y="14" width="0.52" height="0.52" fill="#10151f"/><rect x="13.5" y="14.5" width="0.52" height="0.52" fill="#10151f"/><rect x="13.5" y="15" width="0.52" height="0.52" fill="#10151f"/><rect x="14" y="13.5" width="0.52" height="0.52" fill="#10151f"/><rect x="14" y="14" width="0.52" height="0.52" fill="#10151f"/><rect x="14" y="14.5" width="0.52" height="0.52" fill="#10151f"/><rect x="14" y="15" width="0.52" height="0.52" fill="#10151f"/><rect x="14" y="15.5" width="0.52" height="0.52" fill="#10151f"/><rect x="14.5" y="13.5" width="0.52" height="0.52" fill="#10151f"/><rect x="14.5" y="14" width="0.52" height="0.52" fill="#10151f"/><rect x="14.5" y="14.5" width="0.52" height="0.52" fill="#10151f"/><rect x="14.5" y="15" width="0.52" height="0.52" fill="#10151f"/><rect x="14.5" y="15.5" width="0.52" height="0.52" fill="#10151f"/><rect x="15" y="14" width="0.52" height="0.52" fill="#10151f"/><rect x="15" y="14.5" width="0.52" height="0.52" fill="#10151f"/><rect x="15" y="15" width="0.52" height="0.52" fill="#10151f"/><rect x="15.5" y="16" width="0.52" height="0.52" fill="#10151f"/><rect x="15.5" y="16.5" width="0.52" height="0.52" fill="#10151f"/><rect x="16" y="15.5" width="0.52" height="0.52" fill="#10151f"/><rect x="16" y="16" width="0.52" height="0.52" fill="#10151f"/><rect x="16" y="16.5" width="0.52" height="0.52" fill="#10151f"/><rect x="16.5" y="16" width="0.52" height="0.52" fill="#10151f"/><rect x="16.5" y="16.5" width="0.52" height="0.52" fill="#10151f"/><rect x="11.5" y="16" width="0.52" height="0.52" fill="#10151f"/><rect x="12" y="15.5" width="0.52" height="0.52" fill="#10151f"/><rect x="12" y="16" width="0.52" height="0.52" fill="#10151f"/><rect x="12" y="16.5" width="0.52" height="0.52" fill="#10151f"/><rect x="12.5" y="15.5" width="0.52" height="0.52" fill="#10151f"/><rect x="12.5" y="16" width="0.52" height="0.52" fill="#10151f"/><rect x="12.5" y="16.5" width="0.52" height="0.52" fill="#10151f"/><rect x="12" y="12.5" width="0.52" height="0.52" fill="#10151f"/><rect x="12" y="13" width="0.52" height="0.52" fill="#10151f"/><rect x="12.5" y="12" width="0.52" height="0.52" fill="#10151f"/><rect x="12.5" y="12.5" width="0.52" height="0.52" fill="#10151f"/><rect x="12.5" y="13" width="0.52" height="0.52" fill="#10151f"/><rect x="13" y="12.5" width="0.52" height="0.52" fill="#10151f"/><rect x="13" y="13" width="0.52" height="0.52" fill="#10151f"/><rect x="15" y="12.5" width="0.52" height="0.52" fill="#10151f"/><rect x="15" y="13" width="0.52" height="0.52" fill="#10151f"/><rect x="15.5" y="12" width="0.52" height="0.52" fill="#10151f"/><rect x="15.5" y="12.5" width="0.52" height="0.52" fill="#10151f"/><rect x="15.5" y="13" width="0.52" height="0.52" fill="#10151f"/><rect x="16" y="12.5" width="0.52" height="0.52" fill="#10151f"/><rect x="16" y="13" width="0.52" height="0.52" fill="#10151f"/></svg>